<?xml version="1.0" encoding="utf-8"?>
<svg viewBox="-10.549 -2.11 500 500" xmlns="http://www.w3.org/2000/svg" xmlns:bx="https://boxy-svg.com">
  <path style="fill: rgb(153, 188, 236);" transform="matrix(0.675676, 0, 0, 0.976985, -4.921893, 44.12738)" d="M 153.137 288.361 A 165.869 165.869 0 0 1 484.863 285.593 L 319 287 Z" bx:shape="pie 319 287 0 165.869 269.53 89.514 1@5a2a9814"/>
  <path style="fill: rgb(216, 216, 216); stroke: rgb(0, 0, 0);" d="M 246.056 278.528"/>
  <rect x="0.703" y="139.944" width="481.716" height="168.073" style="paint-order: stroke markers; mix-blend-mode: multiply; fill: rgb(230, 240, 229);"/>
  <rect y="298.797" width="485.232" height="14.768" style="fill: rgb(171, 109, 57);"/>
  <path style="fill: rgb(216, 216, 216); stroke: rgb(0, 0, 0);" d="M 296.062 218.628 L 125.176 220.738"/>
  <path style="fill: rgb(216, 216, 216); stroke: rgb(0, 0, 0);" d="M 114.627 242.538 L 307.314 240.428"/>
  <path style="fill: rgb(216, 216, 216); stroke: rgb(0, 0, 0);" d="M 314.346 263.635 L 107.595 265.745"/>
  <path style="fill: rgb(216, 216, 216); stroke: rgb(0, 0, 0);" d="M 104.079 286.138 L 320.675 283.326"/>
  <path style="fill: rgb(216, 216, 216); stroke: rgb(0, 0, 0);" d="M 141.35 201.047 L 282.7 198.234"/>
  <path style="fill: rgb(216, 216, 216); stroke: rgb(0, 0, 0);" d="M 165.26 181.356 L 258.79 180.653"/>
  <path style="fill: rgb(216, 216, 216); stroke: rgb(0, 0, 0);" d="M 182.841 170.105 L 182.138 298.093"/>
  <path style="fill: rgb(216, 216, 216); stroke: rgb(0, 0, 0);" d="M 154.008 186.279 L 153.305 298.797"/>
  <path style="fill: rgb(216, 216, 216); stroke: rgb(0, 0, 0);" d="M 133.615 209.486 L 133.615 298.093"/>
  <path style="fill: rgb(216, 216, 216); stroke: rgb(0, 0, 0);" d="M 120.253 231.286 L 118.847 297.39"/>
  <path style="fill: rgb(216, 216, 216); stroke: rgb(0, 0, 0);" d="M 205.345 164.479 L 206.751 298.797"/>
  <path style="fill: rgb(216, 216, 216); stroke: rgb(0, 0, 0);" d="M 239.1 167.292 L 239.1 300.203"/>
  <path style="fill: rgb(216, 216, 216); stroke: rgb(0, 0, 0);" d="M 270.042 187.686 L 272.152 298.797"/>
  <path style="fill: rgb(216, 216, 216); stroke: rgb(0, 0, 0);" d="M 290.436 208.783 L 291.842 300.906"/>
  <path style="fill: rgb(216, 216, 216); stroke: rgb(0, 0, 0);" d="M 308.72 246.757 L 309.423 298.093"/>
  <path style="fill: rgb(216, 216, 216); stroke: rgb(0, 0, 0);" d="M 4.219 247.461 L 110.408 246.757"/>
  <path style="fill: rgb(216, 216, 216); stroke: rgb(0, 0, 0);" d="M 5.626 233.396"/>
  <path style="fill: rgb(216, 216, 216); stroke: rgb(0, 0, 0);" d="M 0 227.77 L 120.253 226.363"/>
  <path style="fill: rgb(216, 216, 216); stroke: rgb(0, 0, 0);" d="M 301.688 221.441 C 301.688 221.441 478.903 222.847 478.903 222.144"/>
  <path style="fill: rgb(216, 216, 216); stroke: rgb(0, 0, 0);" d="M 312.236 242.538 L 480.309 241.835"/>
  <path style="fill: rgb(216, 216, 216); stroke: rgb(0, 0, 0);" d="M 1.406 172.918 L 169.48 172.214"/>
  <path style="fill: rgb(216, 216, 216); stroke: rgb(0, 0, 0);" d="M 251.758 173.621 L 478.903 173.621"/>
  <path style="fill: rgb(216, 216, 216); stroke: rgb(0, 0, 0);" d="M 481.716 162.369 L -1.406 162.369"/>
  <path style="fill: rgb(216, 216, 216); stroke: rgb(0, 0, 0);" d="M 0.703 269.964 L 103.376 269.964"/>
  <path style="fill: rgb(216, 216, 216); stroke: rgb(0, 0, 0);" d="M 320.675 265.745 C 320.675 265.745 478.903 263.635 478.903 264.338"/>
  <rect x="0.703" y="248.867" width="105.485" height="18.987" style="fill: rgb(255, 255, 255);"/>
  <rect x="0.703" y="174.324" width="123.066" height="48.523" style="fill: rgb(255, 255, 255);"/>
  <rect x="124.473" y="175.731" width="24.613" height="13.361" style="fill: rgb(255, 255, 255);"/>
  <rect x="118.847" y="190.498" width="25.316" height="4.219" style="fill: rgb(255, 255, 255);"/>
  <ellipse style="fill: rgb(252, 252, 252);" cx="128.34" cy="196.828" rx="8.79" ry="14.768"/>
  <ellipse style="fill: rgb(216, 216, 216);"/>
  <rect x="299.578" y="176.434" width="180.028" height="44.304" style="fill: rgb(255, 255, 255);"/>
  <rect x="312.236" y="245.351" width="165.963" height="16.878" style="fill: rgb(248, 248, 248);"/>
  <ellipse style="fill: rgb(248, 248, 248);" cx="298.523" cy="197.531" rx="10.197" ry="16.174"/>
  <ellipse style="fill: rgb(255, 255, 255);" cx="290.788" cy="184.521" rx="20.745" ry="9.494"/>
  <ellipse style="fill: rgb(255, 255, 255);" cx="276.723" cy="180.653" rx="13.01" ry="4.219"/>
  <path style="stroke: rgb(0, 0, 0); fill: rgb(233, 220, 220);" d="M 91.421 325.52 L 17.581 360.681 L -9.142 338.178 L 82.982 308.642 L 91.421 325.52 Z"/>
  <path style="stroke: rgb(0, 0, 0); fill: rgb(233, 220, 220);" d="M 29.536 293.171 L 16.174 330.442 L 71.73 312.861 L 64.698 296.687 L 49.93 300.203 L 36.568 276.996 L 29.536 293.171 Z"/>
  <path stroke="rgb(255,0,0)" stroke-width="0" d="M 99.044 314.507 C 112.358 313.232 167.852 318.849 184.135 318.023 C 192.419 317.603 192.062 315.8 199.606 315.21 C 212.415 314.208 242.367 313.886 258.678 315.21 C 271.574 316.257 283.481 320.988 291.027 320.836 C 295.884 320.738 298.133 317.743 301.575 318.023 C 305.05 318.306 308.843 319.506 311.772 322.594 C 311.922 322.752 312.07 322.915 312.218 323.083 C 314.816 322.634 317.824 322.778 319.508 321.539 C 321.73 319.906 321.643 316.143 323.727 314.507 C 325.912 312.791 328.089 312.338 332.518 311.694 C 340.199 310.577 353.272 310.995 369.086 310.991 C 391.829 310.984 440.262 312.737 459.803 312.397 C 471.138 312.2 476.98 309.906 483.01 310.991 C 487.655 311.827 490.961 313.045 493.91 316.265 C 497.504 320.189 500.458 328.927 501.646 334.549 C 502.659 339.347 502.455 342.059 501.646 347.911 C 500.428 356.707 490.882 378.202 492.503 383.776 C 493.348 386.678 496.982 385.352 498.833 387.292 C 501.095 389.662 503.464 393.732 504.458 397.84 C 505.581 402.477 505.418 407.447 504.458 414.015 C 503.162 422.886 496.613 438.196 495.316 447.067 C 494.357 453.635 493.239 459.795 495.316 463.241 C 497.088 466.179 502.649 465.059 505.162 467.812 C 508.058 470.985 511.193 477.807 510.788 482.228 C 510.401 486.446 505.783 491.868 503.404 493.832 C 501.845 495.119 499.563 493.612 498.833 495.238 C 497.547 498.1 502.874 509.724 502.349 514.577 C 501.965 518.123 501.483 521.189 498.481 522.664 C 493.905 524.914 477.379 523.494 472.813 520.906 C 469.904 519.258 471.713 514.858 468.945 513.522 C 464.875 511.559 455.956 515.506 447.145 514.929 C 435.529 514.168 421.152 509.126 404.248 507.193 C 383.204 504.787 351.013 502.566 329.001 502.974 C 310.4 503.319 296.609 507.063 279.775 507.897 C 262.412 508.756 242.181 508.628 226.329 507.897 C 212.685 507.267 197.915 507.079 189.761 504.38 C 184.352 502.591 180.993 500.086 178.861 496.996 C 178.328 496.224 177.892 495.376 177.551 494.484 C 93.462 494.921 -3.084 490.46 -19.451 483.635 C -27.404 480.319 -23.618 474.846 -24.374 470.977 C -25.019 467.674 -25.097 465.995 -24.374 461.835 C -23.208 455.121 -16.847 443.766 -15.232 433.002 C -13.412 420.871 -17.233 403.12 -15.232 392.214 C -14.762 389.65 -14.234 387.223 -13.601 384.943 C -18.552 376.173 -24.333 362.064 -24.374 355.646 C -24.407 350.553 -21.368 347.015 -18.748 344.746 C -16.411 342.721 -13.293 341.864 -9.958 341.933 C -5.967 342.016 1.084 344.538 3.755 346.504 C 5.553 347.827 5.756 350.146 6.568 351.075 C 7.088 351.67 7.193 351.603 7.975 352.13 C 9.537 353.185 15.007 356.193 16.414 357.404 C 17.034 357.939 16.953 358.19 17.302 358.625 C 24.171 356.359 37.012 352.967 42.082 350.372 C 46.401 348.161 49.424 344.922 50.872 343.691 C 51.522 343.139 51.057 343.044 51.927 342.636 C 54.431 341.462 66.949 339.979 72.321 337.714 C 76.644 335.891 80.924 332.273 82.518 331.033 C 83.205 330.498 83.062 330.72 83.572 329.978 C 84.832 328.144 87.338 319.853 90.253 317.32 C 92.699 315.195 93.57 315.031 99.044 314.507 Z M 4.107 303.958 C 9.083 303.932 12.306 304.243 15.007 306.771 C 18.126 309.691 21.136 317.251 20.633 321.891 C 20.148 326.365 16.206 331.213 12.546 334.198 C 8.844 337.216 2.834 338.953 -1.519 339.823 C -5.286 340.576 -8.423 340.04 -12.068 339.823 C -15.91 339.595 -20.621 339.854 -24.023 338.417 C -27.241 337.057 -30.413 334.522 -32.11 331.736 C -33.779 328.995 -34.686 325.209 -34.219 321.891 C -33.714 318.3 -32.643 313.796 -28.594 310.991 C -22.545 306.8 -3.585 303.999 4.107 303.958 Z" style="stroke: rgb(129, 151, 57); stroke-width: 2px; fill: rgb(82, 123, 220);"/>
  <path d="M 300.2812832787349 467.57303928599845 C 300.89810114597014 470.0402843109396 303.39819845867663 483.44347634601087 302.3909912109375 484.45068359375 C 302.0643611351322 484.7773136695553 300.60395191399704 479.3377689475871 299.5780334472656 478.8247985839844 C 297.77726134364735 477.9243929955152 286.5461907884989 464.4304937818136 282.7004089355469 468.2762756347656 C 279.39243644659115 471.58424812372135 284.7225813092148 485.2412820821871 288.3262939453125 481.6377258300781 C 292.46795513818523 477.49624436560293 295.90836123858384 473.3524419840724 300.2812805175781 468.9795227050781" style="stroke: rgb(0, 0, 0); fill: rgb(206, 84, 22);"/>
  <path d="M 42.194 431.708 C 42.194 441.672 42.897 452.274 42.897 462.65 C 44.304 455.636 51.499 453.184 54.149 447.882 C 58.129 439.922 69.704 428.276 77.356 435.927 C 78.749 437.32 86.226 448.154 82.982 451.399 C 81.286 453.094 71.652 454.134 68.917 451.399 C 63.267 445.748 52.076 443.7 47.117 438.74 C 46.232 437.856 41.279 432.411 40.084 432.411 Z" style="stroke: rgb(0, 0, 0); fill: rgb(201, 74, 0);"/>
  <path d="M 248.24190397516023 385.29456119791416 C 250.45730941565614 394.156106856319 251.05484008789062 401.0699192942433 251.05484008789062 410.61102294921875 C 251.05484008789062 412.067897190289 251.9819662009413 418.82593604547156 251.05484008789062 419.7530822753906 C 250.07167856792077 420.73626512809034 241.6390546619208 412.583867623012 240.50631713867188 412.0174865722656 C 232.36092668354314 407.94470297498253 225.26957788782232 401.93768099244846 215.89309692382812 397.2495422363281 C 213.25468792367056 395.93036636047094 205.53229117057373 395.65532682663365 203.23487854003906 397.9527893066406 C 199.36004694307059 401.8277049800644 196.82872853057106 408.1111297472869 203.23487854003906 411.3142395019531 C 204.77347662878134 412.08354689239474 213.03116672453427 417.69228191922633 215.89309692382812 414.8304138183594 C 225.028841884042 405.69486708638686 238.34470910080063 397.30163907216445 246.83543395996094 388.81072998046875" style="stroke: rgb(0, 0, 0); fill: rgb(209, 80, 5);"/>
  <path d="M 120.9563951380384 352.9457578470434 C 120.9563980102539 358.67615217966454 122.72663831616799 372.9757158509531 119.5499267578125 376.1524963378906 C 119.25741893636592 376.445010506199 119.5499267578125 383.1848449707031 119.5499267578125 383.1848449707031 C 119.5499267578125 383.1848449707031 121.71885911473315 376.8261282797918 123.06610107421875 376.1524963378906 C 130.94359672222197 372.21368441675 136.64286634681707 367.60596021430416 144.8663787841797 363.4942932128906 C 153.35293471045298 359.2511073207927 162.64708364879152 369.42356694967447 158.9310760498047 376.8557434082031 C 158.04130982486888 378.63531447053487 152.2329218663559 383.519069937645 149.7890167236328 381.0751647949219 C 145.4613066148086 376.7474546860977 139.1363567155752 367.6094729884916 135.02108764648438 363.4942932128906 C 132.09184246589408 360.5651115913339 128.5073642252245 359.09027085256344 126.582275390625 357.1651611328125 C 126.0545385314868 356.63741854829476 122.36286163330078 356.5424344092498 122.36286163330078 355.7586975097656" style="stroke: rgb(0, 0, 0); fill: rgb(220, 99, 1);"/>
  <path stroke="rgb(255,0,0)" stroke-width="0" d="M 127.876 -15.31 C 147.249 -17.4 170.103 -15.874 184.838 -15.31 C 195.506 -14.902 201.179 -14.581 210.155 -13.201 C 220.05 -11.679 231.573 -7.435 241.8 -6.168 C 251.464 -4.971 259.217 -5.504 269.93 -5.465 C 282.776 -5.418 299.203 -5.373 314.233 -6.168 C 329.662 -6.984 342.854 -9.607 361.35 -10.388 C 384.431 -11.362 422.897 -11.369 443.629 -10.388 C 458.177 -9.699 468.516 -9.467 477.384 -6.871 C 484.374 -4.826 490.807 -1.804 493.91 1.919 C 496.411 4.92 496.922 9.208 496.723 12.468 C 496.537 15.503 493.697 17.104 493.207 20.906 C 492.503 26.367 495.794 34.791 495.316 43.41 C 494.733 53.933 487.931 68.264 488.284 79.978 C 488.623 91.197 495.465 103.021 496.723 112.327 C 497.741 119.857 498.208 126.468 496.723 132.017 C 495.415 136.907 492.755 141.568 489.339 144.324 C 486.021 147.001 484.059 147.58 476.681 148.544 C 460.65 150.636 407.054 150.323 383.854 148.544 C 367.656 147.301 361.134 143.378 346.582 142.214 C 328.699 140.785 303.333 141.826 283.291 142.214 C 264.554 142.578 249.646 144.793 229.845 144.324 C 206.949 143.782 179.373 138.73 153.193 137.995 C 126.201 137.237 88.82 140.318 70.211 140.105 C 58.892 139.975 54.337 138.589 46.301 138.698 C 38.165 138.809 26.005 141.257 21.688 140.808 C 19.649 140.596 20.135 139.674 18.172 139.401 C 14.268 138.86 2.681 141.496 -2.925 140.105 C -7.513 138.966 -11.539 136.632 -13.826 133.424 C -16.125 130.197 -16.751 124.155 -16.639 120.766 C -16.552 118.168 -14.549 117.047 -14.529 114.437 C -14.502 110.979 -15.902 104.528 -18.045 101.427 C -19.898 98.746 -23.931 99.074 -25.781 96.153 C -28.141 92.423 -30.032 84.803 -29.297 79.275 C -28.534 73.544 -22.391 68.432 -20.858 62.397 C -19.298 56.257 -19.904 49.118 -20.155 42.707 C -20.399 36.468 -22.806 29.295 -22.264 24.423 C -21.844 20.637 -18.883 18.415 -18.748 15.281 C -18.611 12.089 -22.045 8.737 -21.561 5.435 C -21.032 1.826 -18.149 -3.174 -14.88 -5.465 C -11.525 -7.817 -7.4 -8.301 -1.519 -8.278 C 7.121 -8.243 22.177 -2.983 33.643 -1.949 C 44.661 -0.955 53.048 -0.474 65.992 -1.949 C 82.923 -3.878 107.667 -13.13 127.876 -15.31 Z" style="stroke: rgb(129, 151, 57); stroke-width: 2px; fill: rgb(224, 226, 240);"/>
  <circle style="fill: rgb(234, 239, 79);" cx="50.633" cy="24.535" r="47.164"/>
  <path d="M 66.104 62.51 C 70.234 66.639 72.345 63.872 76.653 66.026 C 82.655 69.027 94.775 73.058 101.969 73.058" style="stroke: rgb(0, 0, 0); fill: rgb(234, 239, 79);"/>
  <path d="M 96.3431751971585 41.41271688104918 C 100.92115901272734 40.356259295638466 127.7181917512957 40.87157473152749 123.76933288574219 32.973899841308594" style="stroke: rgb(0, 0, 0); fill: rgb(234, 239, 79);"/>
  <path d="M 101.2658191853345 18.205966651076693 C 104.18097135399613 11.403956059492891 109.73845136617501 8.322032118501738 114.62728118896484 2.734799861907959 C 121.10557654353211 -4.668963837137024 125.88809392476789 -13.457662633226795 130.09844970703125 -21.878419876098633" style="stroke: rgb(0, 0, 0); fill: rgb(234, 239, 79);"/>
  <path d="M 4.922643988175992 9.06391353017844 C -3.2161660520890205 7.029211487558269 -12.521330171518905 -0.07813958823680878 -20.393810272216797 -0.07813958823680878" style="stroke: rgb(0, 0, 0); fill: rgb(234, 239, 79);"/>
  <path d="M 6.329113699083422 28.051254627428662 C 4.486376357468492 31.73673102336426 -5.930885837822987 43.522422790527344 -7.735583305358887 43.522422790527344" style="stroke: rgb(0, 0, 0); fill: rgb(234, 239, 79);"/>
  <path d="M 16.174401675435377 54.07094427921599 C 16.174402236938477 63.022719120416745 7.0323486328125 70.70638989842332 7.0323486328125 76.574462890625" style="stroke: rgb(0, 0, 0); fill: rgb(234, 239, 79);"/>
  <path d="M 34.45850791723191 68.83887624374393 C 37.56576105932917 76.6070001929743 38.67791748046875 86.48564046441999 38.67791748046875 94.85856628417969" style="stroke: rgb(0, 0, 0); fill: rgb(234, 239, 79);"/>
</svg>